<?xml version="1.0" encoding="utf-8"?>
<!-- Generator: Adobe Illustrator 14.0.0, SVG Export Plug-In . SVG Version: 6.00 Build 43363)  -->
<!DOCTYPE svg PUBLIC "-//W3C//DTD SVG 1.1//EN" "http://www.w3.org/Graphics/SVG/1.1/DTD/svg11.dtd">
<svg version="1.1" id="Capa_1" xmlns="http://www.w3.org/2000/svg" xmlns:xlink="http://www.w3.org/1999/xlink" x="0px" y="0px"
	 width="270px" height="90px" viewBox="0 0 270 90" enable-background="new 0 0 270 90" xml:space="preserve">
<g>
	<g>
		<path fill="#FFFFFF" d="M0.891,9.213c0-3.471,2.814-6.291,6.291-6.291h70.847c3.476,0,6.295,2.819,6.295,6.291v70.854
			c0,3.473-2.819,6.288-6.295,6.288H7.182c-3.477,0-6.291-2.815-6.291-6.288V9.213z M31.081,17.078c-6.295,0-6.429,4.08-6.396,5.905
			l0.004,3.696l0.021,0.029h22.25c5.299,0,8.573,1.431,8.573,6.025c0,4.442-3.88,6.817-8.467,6.817v8.835
			c4.202,0,9.788,1.874,9.788,6.768c0,5.695-3.269,6.965-8.955,6.965l-14.324-0.004h-8.86v9.661h21.318
			c11.449,0,14.475-1.94,17.668-5.058c2.966-2.884,4.831-5.869,4.831-10.308c0-5.535-1.793-10.986-8.645-13.555
			c2.342-1.165,6.852-3.426,6.852-11.447c0-5.758-3.494-14.327-17.205-14.327L31.081,17.078z M13.024,48.582h11.633v11.587h9.226
			V48.582h10.745V39.61H33.882V28.586h-9.226V39.61h-8.932c-1.511,0-2.717,1.214-2.717,2.717L13.024,48.582z"/>
		<path fill="#FFFFFF" d="M13.024,48.646c-0.075-1.619-0.122-3.244-0.131-4.864c0.021-0.806-0.143-1.615,0.174-2.459
			c0.298-0.806,0.999-1.438,1.827-1.696c1.695-0.249,3.261-0.029,4.897-0.067c1.621,0.005,3.245,0.046,4.865,0.118
			c-1.621,0.067-3.245,0.109-4.865,0.118c-1.591,0.071-3.302-0.08-4.792,0.174c-0.729,0.207-1.366,0.75-1.659,1.459
			c-0.291,0.692-0.181,1.556-0.214,2.354C13.122,45.402,13.087,47.027,13.024,48.646"/>
	</g>
	<g>
		<path fill="#FFFFFF" d="M91.376,8.279c0-1.75,1.381-3.136,3.135-3.136H104.6c3.257,0,5.817,0.897,7.442,2.524
			c1.307,1.307,1.959,2.885,1.959,4.84v0.087c0,3.216-1.708,5.003-3.747,6.142c3.298,1.26,5.325,3.177,5.325,6.999v0.08
			c0,5.215-4.228,7.811-10.653,7.811H94.512c-1.754,0-3.135-1.377-3.135-3.127V8.279z M103.251,16.659
			c2.772,0,4.516-0.892,4.516-3.009v-0.08c0-1.876-1.464-2.93-4.102-2.93h-6.186v6.019H103.251z M104.926,28.137
			c2.767,0,4.432-0.976,4.432-3.094v-0.079c0-1.922-1.422-3.094-4.638-3.094h-7.241v6.267H104.926z"/>
		<path fill="#FFFFFF" d="M117.014,8.433c0-1.745,1.383-3.13,3.133-3.13h9.886c3.616,0,6.429,1.018,8.293,2.884
			c1.591,1.591,2.449,3.83,2.449,6.513v0.076c0,4.483-2.242,7.25-5.703,8.672l4.364,5.292c0.611,0.774,1.013,1.422,1.013,2.397
			c0,1.755-1.464,2.89-2.969,2.89c-1.42,0-2.364-0.687-3.098-1.628l-6.104-7.728h-4.999v6.228c0,1.746-1.389,3.128-3.133,3.128
			c-1.75,0-3.133-1.382-3.133-3.128V8.433z M129.628,19.141c3.047,0,4.796-1.635,4.796-4.035v-0.08c0-2.683-1.866-4.068-4.917-4.068
			h-6.226v8.183H129.628z"/>
		<path fill="#FFFFFF" d="M143.575,8.187c0-1.742,1.378-3.127,3.133-3.127c1.753,0,3.133,1.385,3.133,3.127v22.712
			c0,1.746-1.38,3.128-3.133,3.128c-1.755,0-3.133-1.382-3.133-3.128V8.187z"/>
		<path fill="#FFFFFF" d="M153.053,30.774c-0.695-0.485-1.179-1.38-1.179-2.36c0-1.628,1.292-2.889,2.928-2.889
			c0.813,0,1.381,0.284,1.788,0.573c2.151,1.578,4.517,2.554,7.278,2.554c2.567,0,4.113-1.013,4.113-2.679v-0.084
			c0-1.582-0.973-2.399-5.736-3.621c-5.737-1.464-9.447-3.056-9.447-8.702v-0.088c0-5.165,4.155-8.581,9.982-8.581
			c3.448,0,6.462,0.891,9.031,2.523c0.689,0.397,1.381,1.261,1.381,2.479c0,1.624-1.298,2.884-2.932,2.884
			c-0.61,0-1.097-0.159-1.582-0.439c-2.08-1.222-4.035-1.918-5.989-1.918c-2.399,0-3.655,1.097-3.655,2.483v0.079
			c0,1.875,1.219,2.486,6.142,3.746c5.78,1.504,9.037,3.588,9.037,8.544v0.084c0,5.65-4.31,8.832-10.46,8.832
			C160.006,34.193,156.227,33.055,153.053,30.774"/>
		<path fill="#FFFFFF" d="M184.243,11.08h-6.017c-1.585,0-2.883-1.302-2.883-2.893c0-1.577,1.298-2.884,2.883-2.884h18.307
			c1.587,0,2.891,1.307,2.891,2.884c0,1.591-1.304,2.893-2.891,2.893h-6.016v19.819c0,1.746-1.387,3.128-3.138,3.128
			c-1.75,0-3.137-1.382-3.137-3.128V11.08z"/>
		<path fill="#FFFFFF" d="M199.161,19.623v-0.083c0-8.095,6.383-14.731,15.179-14.731c8.788,0,15.091,6.552,15.091,14.651v0.08
			c0,8.1-6.394,14.739-15.178,14.739C205.466,34.278,199.161,27.722,199.161,19.623 M222.88,19.623v-0.083
			c0-4.877-3.579-8.946-8.627-8.946c-5.046,0-8.549,3.99-8.549,8.866v0.08c0,4.884,3.584,8.95,8.636,8.95
			C219.388,28.489,222.88,24.504,222.88,19.623"/>
		<path fill="#FFFFFF" d="M231.615,8.187c0-1.742,1.386-3.127,3.136-3.127c1.76,0,3.136,1.385,3.136,3.127v19.905h11.604
			c1.576,0,2.837,1.26,2.837,2.842c0,1.59-1.261,2.85-2.837,2.85h-14.74c-1.75,0-3.136-1.385-3.136-3.131V8.187z"/>
	</g>
	<g>
		<path fill="#FFFFFF" d="M91.685,40.813c0-1.754,1.382-3.127,3.132-3.127h0.693c1.339,0,2.282,0.688,2.843,1.623l7.573,12.33
			l7.61-12.375c0.653-1.056,1.549-1.579,2.809-1.579h0.688c1.749,0,3.14,1.373,3.14,3.127v22.625c0,1.75-1.391,3.137-3.14,3.137
			c-1.705,0-3.09-1.425-3.09-3.137V49.235l-5.495,8.46c-0.649,0.98-1.466,1.594-2.601,1.594c-1.147,0-1.95-0.613-2.608-1.594
			l-5.408-8.334v14.161c0,1.708-1.389,3.052-3.093,3.052c-1.712,0-3.052-1.344-3.052-3.052V40.813z"/>
		<path fill="#FFFFFF" d="M122.929,63.189V40.972c0-1.749,1.387-3.132,3.136-3.132h15.791c1.545,0,2.806,1.266,2.806,2.809
			c0,1.549-1.261,2.764-2.806,2.764h-12.692V49.2h10.859c1.553,0,2.813,1.261,2.813,2.806c0,1.544-1.26,2.768-2.813,2.768h-10.859
			v5.981h12.896c1.545,0,2.811,1.259,2.811,2.805c0,1.545-1.266,2.772-2.811,2.772h-15.995
			C124.316,66.332,122.929,64.946,122.929,63.189"/>
		<path fill="#FFFFFF" d="M146.13,40.972c0-1.749,1.387-3.132,3.135-3.132h7.975c8.955,0,15.135,6.146,15.135,14.17v0.076
			c0,8.011-6.18,14.246-15.135,14.246h-7.975c-1.748,0-3.135-1.386-3.135-3.143V40.972z M157.239,60.672
			c5.127,0,8.589-3.456,8.589-8.507v-0.079c0-5.041-3.462-8.591-8.589-8.591h-4.844v17.177H157.239z"/>
		<path fill="#FFFFFF" d="M174.172,40.733c0-1.755,1.376-3.14,3.126-3.14s3.141,1.384,3.141,3.14v22.704
			c0,1.75-1.391,3.137-3.141,3.137s-3.126-1.387-3.126-3.137V40.733z"/>
		<path fill="#FFFFFF" d="M182.222,52.165v-0.079c0-8.101,6.106-14.731,14.854-14.731c4.274,0,7.158,1.146,9.521,2.883
			c0.651,0.495,1.223,1.386,1.223,2.486c0,1.708-1.391,3.051-3.091,3.051c-0.85,0-1.424-0.321-1.875-0.61
			c-1.751-1.302-3.578-2.034-5.823-2.034c-4.792,0-8.257,3.985-8.257,8.875v0.08c0,4.884,3.379,8.95,8.257,8.95
			c2.647,0,4.396-0.812,6.189-2.236c0.491-0.405,1.136-0.693,1.878-0.693c1.571,0,2.926,1.305,2.926,2.9
			c0,0.967-0.494,1.743-1.063,2.228c-2.559,2.238-5.567,3.576-10.132,3.576C188.444,66.811,182.222,60.349,182.222,52.165"/>
		<path fill="#FFFFFF" d="M209.729,40.733c0-1.755,1.379-3.14,3.134-3.14c1.75,0,3.133,1.384,3.133,3.14v22.704
			c0,1.75-1.383,3.137-3.133,3.137c-1.755,0-3.134-1.387-3.134-3.137V40.733z"/>
		<path fill="#FFFFFF" d="M219.048,40.813c0-1.754,1.382-3.127,3.125-3.127h0.661c1.502,0,2.397,0.719,3.252,1.824l12.088,15.863
			v-14.68c0-1.714,1.384-3.098,3.096-3.098c1.707,0,3.085,1.384,3.085,3.098v22.667c0,1.745-1.378,3.134-3.128,3.134h-0.205
			c-1.502,0-2.406-0.734-3.257-1.836l-12.533-16.444v15.263c0,1.712-1.385,3.099-3.093,3.099c-1.709,0-3.091-1.387-3.091-3.099
			V40.813z"/>
		<path fill="#FFFFFF" d="M247.129,63.189V40.972c0-1.749,1.382-3.132,3.126-3.132h15.79c1.544,0,2.805,1.266,2.805,2.809
			c0,1.549-1.261,2.764-2.805,2.764h-12.7V49.2h10.866c1.554,0,2.81,1.261,2.81,2.806c0,1.544-1.256,2.768-2.81,2.768h-10.866v5.981
			h12.907c1.543,0,2.803,1.259,2.803,2.805c0,1.545-1.26,2.772-2.803,2.772h-15.997C248.511,66.332,247.129,64.946,247.129,63.189"
			/>
	</g>
	<path fill="#FFFFFF" d="M91.991,70.761c0-0.269,0.231-0.503,0.502-0.503h0.104c0.206,0,0.369,0.114,0.503,0.292l5.287,7.805
		l5.299-7.805c0.121-0.178,0.297-0.292,0.507-0.292h0.096c0.272,0,0.504,0.234,0.504,0.503v12.704c0,0.274-0.232,0.509-0.504,0.509
		c-0.272,0-0.505-0.234-0.505-0.509V72.098l-4.982,7.252c-0.118,0.176-0.257,0.259-0.432,0.259c-0.174,0-0.306-0.083-0.422-0.259
		l-4.982-7.252v11.392c0,0.268-0.221,0.484-0.494,0.484c-0.267,0-0.481-0.217-0.481-0.484V70.761z"/>
	<path fill="#FFFFFF" d="M111.335,84.131c-2.604,0-4.853-2.08-4.853-5.163v-0.041c0-2.867,2.019-5.156,4.698-5.156
		c2.766,0,4.529,2.289,4.529,5.122c0,0.234-0.222,0.443-0.452,0.443h-7.77c0.172,2.467,1.944,3.893,3.89,3.893
		c1.415,0,2.395-0.577,3.197-1.35c0.076-0.076,0.171-0.138,0.314-0.138c0.244,0,0.453,0.195,0.453,0.445
		c0,0.097-0.029,0.217-0.151,0.329C114.223,83.489,113.117,84.131,111.335,84.131 M114.683,78.481c-0.129-2-1.279-3.842-3.54-3.842
		c-1.963,0-3.483,1.656-3.655,3.842H114.683z"/>
	<path fill="#FFFFFF" d="M126.231,83.489c0,0.285-0.191,0.484-0.472,0.484c-0.263,0-0.478-0.199-0.478-0.484v-1.813
		c-0.858,1.306-2.119,2.454-4.072,2.454c-2.391,0-4.81-1.927-4.81-5.151v-0.033c0-3.224,2.419-5.176,4.81-5.176
		c1.979,0,3.257,1.121,4.072,2.364v-5.999c0-0.291,0.192-0.482,0.459-0.482c0.273,0,0.49,0.191,0.49,0.482V83.489z M117.426,78.91
		v0.036c0,2.601,1.8,4.271,3.875,4.271c2.065,0,4.037-1.726,4.037-4.249v-0.041c0-2.544-1.972-4.248-4.037-4.248
		C119.145,74.679,117.426,76.249,117.426,78.91"/>
	<path fill="#FFFFFF" d="M128.405,70.606c0-0.337,0.248-0.585,0.579-0.585c0.333,0,0.606,0.248,0.606,0.585v0.321
		c0,0.341-0.272,0.591-0.606,0.591c-0.331,0-0.579-0.25-0.579-0.591V70.606z M128.52,74.409c0-0.271,0.197-0.487,0.464-0.487
		c0.275,0,0.493,0.195,0.493,0.487v9.08c0,0.285-0.197,0.484-0.472,0.484c-0.266,0-0.485-0.199-0.485-0.484V74.409z"/>
	<path fill="#FFFFFF" d="M131.077,78.979v-0.033c0-2.772,2.217-5.176,5.058-5.176c1.699,0,2.819,0.735,3.715,1.564
		c0.071,0.079,0.129,0.215,0.129,0.356c0,0.268-0.209,0.482-0.479,0.482c-0.113,0-0.256-0.039-0.323-0.114
		c-0.803-0.764-1.733-1.4-3.067-1.4c-2.256,0-4.001,1.882-4.001,4.251v0.036c0,2.388,1.803,4.282,4.082,4.282
		c1.275,0,2.307-0.616,3.097-1.414c0.084-0.073,0.178-0.149,0.312-0.149c0.233,0,0.472,0.227,0.472,0.459
		c0,0.101-0.043,0.221-0.122,0.293c-0.992,1.015-2.131,1.714-3.812,1.714C133.273,84.131,131.077,81.761,131.077,78.979"/>
	<path fill="#FFFFFF" d="M141.408,70.606c0-0.337,0.242-0.585,0.574-0.585c0.333,0,0.604,0.248,0.604,0.585v0.321
		c0,0.341-0.271,0.591-0.604,0.591c-0.332,0-0.574-0.25-0.574-0.591V70.606z M141.518,74.409c0-0.271,0.196-0.487,0.465-0.487
		c0.273,0,0.483,0.195,0.483,0.487v9.08c0,0.285-0.188,0.484-0.47,0.484c-0.262,0-0.479-0.199-0.479-0.484V74.409z"/>
	<path fill="#FFFFFF" d="M144.756,74.409c0-0.271,0.202-0.487,0.464-0.487c0.277,0,0.491,0.195,0.491,0.487v1.434
		c0.656-1.164,1.767-2.072,3.569-2.072c2.499,0,3.957,1.706,3.957,4.07v5.648c0,0.285-0.197,0.484-0.465,0.484
		c-0.273,0-0.489-0.199-0.489-0.484v-5.476c0-2.036-1.144-3.374-3.138-3.374c-1.939,0-3.435,1.47-3.435,3.532v5.317
		c0,0.285-0.192,0.484-0.47,0.484c-0.263,0-0.485-0.199-0.485-0.484V74.409z"/>
	<path fill="#FFFFFF" d="M154.38,81.022v-0.039c0-2.057,1.766-3.22,4.32-3.22c1.386,0,2.33,0.174,3.285,0.426v-0.426
		c0-1.997-1.217-3.023-3.26-3.023c-1.085,0-1.993,0.27-2.817,0.659c-0.07,0.036-0.146,0.058-0.21,0.058
		c-0.229,0-0.438-0.213-0.438-0.447c0-0.23,0.166-0.39,0.261-0.426c1.019-0.445,1.999-0.744,3.269-0.744
		c1.333,0,2.401,0.368,3.125,1.089c0.656,0.66,1.005,1.574,1.005,2.792v5.774c0,0.279-0.191,0.479-0.471,0.479
		c-0.27,0-0.463-0.199-0.463-0.479v-1.251c-0.682,0.953-1.899,1.887-3.787,1.887C156.365,84.131,154.38,83.083,154.38,81.022
		 M162.008,80.188v-1.119c-0.838-0.227-1.944-0.457-3.353-0.457c-2.104,0-3.267,0.939-3.267,2.313v0.041
		c0,1.438,1.355,2.264,2.871,2.264C160.278,83.229,162.008,81.989,162.008,80.188"/>
	<path fill="#FFFFFF" d="M169.235,74.409c0-0.292,0.197-0.487,0.473-0.487c0.268,0,0.478,0.195,0.478,0.487v1.803
		c0.863-1.299,2.118-2.441,4.083-2.441c2.39,0,4.804,1.921,4.804,5.14v0.036c0,3.227-2.414,5.185-4.804,5.185
		c-1.985,0-3.266-1.131-4.083-2.37v4.835c0,0.286-0.192,0.482-0.452,0.482c-0.286,0-0.498-0.196-0.498-0.482V74.409z
		 M178.048,78.979v-0.033c0-2.601-1.808-4.268-3.876-4.268c-2.061,0-4.044,1.729-4.044,4.248v0.041c0,2.543,1.983,4.249,4.044,4.249
		C176.327,83.217,178.048,81.645,178.048,78.979"/>
	<path fill="#FFFFFF" d="M179.911,78.979v-0.033c0-2.772,2.156-5.176,5.102-5.176c2.929,0,5.064,2.364,5.064,5.14v0.036
		c0,2.773-2.158,5.185-5.097,5.185S179.911,81.761,179.911,78.979 M189.047,78.979v-0.033c0-2.386-1.787-4.287-4.066-4.287
		c-2.345,0-4.044,1.915-4.044,4.251v0.036c0,2.388,1.782,4.282,4.076,4.282C187.36,83.229,189.047,81.313,189.047,78.979"/>
	<path fill="#FFFFFF" d="M191.552,74.409c0-0.271,0.192-0.487,0.459-0.487c0.281,0,0.495,0.195,0.495,0.487v2.401
		c0.85-1.915,2.57-2.971,3.973-2.971c0.293,0,0.51,0.236,0.51,0.527c0,0.272-0.192,0.509-0.51,0.528
		c-2.094,0.191-3.973,1.768-3.973,4.943v3.65c0,0.268-0.192,0.484-0.474,0.484c-0.263,0-0.48-0.199-0.48-0.484V74.409z"/>
	<path fill="#FFFFFF" d="M202.439,70.761c0-0.269,0.235-0.503,0.497-0.503h0.105c0.205,0,0.368,0.114,0.503,0.292l5.294,7.805
		l5.298-7.805c0.116-0.178,0.293-0.292,0.502-0.292h0.095c0.276,0,0.506,0.234,0.506,0.503v12.704c0,0.274-0.229,0.509-0.506,0.509
		c-0.267,0-0.499-0.234-0.499-0.509V72.098l-4.983,7.252c-0.118,0.176-0.26,0.259-0.437,0.259c-0.172,0-0.309-0.083-0.423-0.259
		l-4.981-7.252v11.392c0,0.268-0.222,0.484-0.495,0.484c-0.267,0-0.476-0.217-0.476-0.484V70.761z"/>
	<path fill="#FFFFFF" d="M221.778,84.131c-2.601,0-4.854-2.08-4.854-5.163v-0.041c0-2.867,2.021-5.156,4.694-5.156
		c2.779,0,4.537,2.289,4.537,5.122c0,0.234-0.225,0.443-0.454,0.443h-7.767c0.172,2.467,1.938,3.893,3.881,3.893
		c1.419,0,2.406-0.577,3.201-1.35c0.076-0.076,0.171-0.138,0.316-0.138c0.241,0,0.453,0.195,0.453,0.445
		c0,0.097-0.037,0.217-0.148,0.329C224.662,83.489,223.562,84.131,221.778,84.131 M225.137,78.481c-0.134-2-1.284-3.842-3.551-3.842
		c-1.959,0-3.479,1.656-3.65,3.842H225.137z M221.351,72.236c0-0.083,0.039-0.158,0.08-0.217l1.201-1.805
		c0.159-0.23,0.31-0.345,0.547-0.345c0.37,0,0.81,0.248,0.81,0.445c0,0.114-0.097,0.234-0.219,0.349l-1.547,1.489
		c-0.234,0.217-0.368,0.26-0.61,0.26C221.46,72.413,221.351,72.33,221.351,72.236"/>
	<path fill="#FFFFFF" d="M236.681,83.489c0,0.285-0.193,0.484-0.469,0.484c-0.267,0-0.48-0.199-0.48-0.484v-1.813
		c-0.854,1.306-2.12,2.454-4.079,2.454c-2.388,0-4.812-1.927-4.812-5.151v-0.033c0-3.224,2.424-5.176,4.812-5.176
		c1.978,0,3.262,1.121,4.079,2.364v-5.999c0-0.291,0.188-0.482,0.461-0.482c0.271,0,0.488,0.191,0.488,0.482V83.489z M227.865,78.91
		v0.036c0,2.601,1.808,4.271,3.881,4.271c2.063,0,4.04-1.726,4.04-4.249v-0.041c0-2.544-1.977-4.248-4.04-4.248
		C229.596,74.679,227.865,76.249,227.865,78.91"/>
	<path fill="#FFFFFF" d="M238.848,70.606c0-0.337,0.256-0.585,0.579-0.585c0.334,0,0.604,0.248,0.604,0.585v0.321
		c0,0.341-0.27,0.591-0.604,0.591c-0.323,0-0.579-0.25-0.579-0.591V70.606z M238.967,74.409c0-0.271,0.197-0.487,0.46-0.487
		c0.277,0,0.495,0.195,0.495,0.487v9.08c0,0.285-0.197,0.484-0.476,0.484c-0.264,0-0.479-0.199-0.479-0.484V74.409z"/>
	<path fill="#FFFFFF" d="M241.525,78.979v-0.033c0-2.772,2.212-5.176,5.051-5.176c1.699,0,2.833,0.735,3.727,1.564
		c0.071,0.079,0.129,0.215,0.129,0.356c0,0.268-0.218,0.482-0.482,0.482c-0.115,0-0.255-0.039-0.33-0.114
		c-0.803-0.764-1.728-1.4-3.063-1.4c-2.252,0-3.999,1.882-3.999,4.251v0.036c0,2.388,1.802,4.282,4.07,4.282
		c1.28,0,2.311-0.616,3.102-1.414c0.079-0.073,0.176-0.149,0.31-0.149c0.234,0,0.474,0.227,0.474,0.459
		c0,0.101-0.037,0.221-0.122,0.293c-0.98,1.015-2.13,1.714-3.813,1.714C243.721,84.131,241.525,81.761,241.525,78.979"/>
	<path fill="#FFFFFF" d="M250.858,78.979v-0.033c0-2.772,2.151-5.176,5.103-5.176c2.927,0,5.064,2.364,5.064,5.14v0.036
		c0,2.773-2.159,5.185-5.098,5.185S250.858,81.761,250.858,78.979 M259.992,78.979v-0.033c0-2.386-1.787-4.287-4.064-4.287
		c-2.348,0-4.044,1.915-4.044,4.251v0.036c0,2.388,1.787,4.282,4.077,4.282C258.307,83.229,259.992,81.313,259.992,78.979"/>
	<path fill="#FFFFFF" d="M261.863,82.802c-0.087-0.054-0.177-0.209-0.177-0.361c0-0.254,0.21-0.463,0.465-0.463
		c0.113,0,0.228,0.034,0.312,0.093c1.034,0.731,2.112,1.127,3.293,1.127c1.342,0,2.387-0.742,2.387-1.885v-0.036
		c0-1.166-1.235-1.598-2.62-1.981c-1.608-0.461-3.392-0.944-3.392-2.715v-0.039c0-1.588,1.342-2.733,3.258-2.733
		c1.063,0,2.251,0.343,3.201,0.887c0.121,0.085,0.257,0.219,0.257,0.428c0,0.258-0.214,0.467-0.47,0.467
		c-0.121,0-0.21-0.039-0.272-0.075c-0.849-0.504-1.805-0.819-2.755-0.819c-1.354,0-2.251,0.741-2.251,1.732v0.033
		c0,1.113,1.343,1.521,2.763,1.927c1.587,0.447,3.248,1.024,3.248,2.771v0.04c0,1.765-1.513,2.886-3.409,2.886
		C264.363,84.084,262.864,83.565,261.863,82.802"/>
</g>
</svg>
